<?xml version="1.0" encoding="UTF-8"?>
<svg width="43px" height="43px" viewBox="0 0 43 43" version="1.1" xmlns="http://www.w3.org/2000/svg" xmlns:xlink="http://www.w3.org/1999/xlink">
    <!-- Generator: Sketch 51.3 (57544) - http://www.bohemiancoding.com/sketch -->
    <title>Group 5</title>
    <desc>Created with Sketch.</desc>
    <defs>
        <polygon id="path-1" points="0.00015483871 1.01574194 42.3390968 1.01574194 42.3390968 43.3548387 0.00015483871 43.3548387"></polygon>
    </defs>
    <g id="Symbols" stroke="none" stroke-width="1" fill="none" fill-rule="evenodd">
        <g id="socialMedia" transform="translate(-196.000000, -1.000000)">
            <g id="Group-7">
                <g id="Group-5" transform="translate(196.645161, 0.000000)">
                    <g id="Page-1">
                        <g id="Group-3">
                            <mask id="mask-2" fill="white">
                                <use xlink:href="#path-1"></use>
                            </mask>
                            <g id="Clip-2"></g>
                            <path d="M42.3390968,22.7179355 C42.3390968,34.4098065 32.8614194,43.8874839 21.1695484,43.8874839 C9.47767742,43.8874839 0,34.4098065 0,22.7179355 C0,11.0260645 9.47767742,1.5483871 21.1695484,1.5483871 C32.8614194,1.5483871 42.3390968,11.0260645 42.3390968,22.7179355" id="Fill-1" fill="#FFFAF4" mask="url(#mask-2)"></path>
                        </g>
                        <g id="Group-6" transform="translate(7.741935, 12.387097)">
                            <polygon id="Fill-4" fill="#756F68" points="0 18.5806452 26.3225806 18.5806452 26.3225806 0 0 0"></polygon>
                            <path d="M0,18.5806452 L26.3225806,18.5806452 L26.3225806,0 L0,0 L0,18.5806452 Z M0.246580477,0.237363117 L11.6016609,11.2730027 C12.4435608,12.0863205 13.9741277,12.0775939 14.7984146,11.279984 L26.1446886,0.328119603 L0.246580477,0.237363117 Z M0.410382154,18.238563 L9.33311173,9.43867453 L0.410382154,18.238563 Z M25.9298115,18.238563 L17.1198049,9.55735609 L25.9298115,18.238563 Z" id="Stroke-6" stroke="#FFFAF4"></path>
                        </g>
                    </g>
                </g>
            </g>
        </g>
    </g>
</svg>