<?xml version="1.0" encoding="UTF-8"?>
<svg width="43px" height="43px" viewBox="0 0 43 43" version="1.1" xmlns="http://www.w3.org/2000/svg" xmlns:xlink="http://www.w3.org/1999/xlink">
    <!-- Generator: Sketch 51.3 (57544) - http://www.bohemiancoding.com/sketch -->
    <title>Group</title>
    <desc>Created with Sketch.</desc>
    <defs>
        <polygon id="path-1" points="0 1.01589677 42.339871 1.01589677 42.339871 43.3548387 0 43.3548387"></polygon>
    </defs>
    <g id="Symbols" stroke="none" stroke-width="1" fill="none" fill-rule="evenodd">
        <g id="socialMedia" transform="translate(0.000000, -1.000000)">
            <g id="Group-7">
                <g id="Group">
                    <g id="Group-3" transform="translate(0.000000, 0.532800)">
                        <mask id="mask-2" fill="white">
                            <use xlink:href="#path-1"></use>
                        </mask>
                        <g id="Clip-2"></g>
                        <path d="M42.339871,22.1854452 C42.339871,33.8773161 32.8621935,43.3549935 21.1687742,43.3549935 C9.47690323,43.3549935 -0.000774193548,33.8773161 -0.000774193548,22.1854452 C-0.000774193548,10.4935742 9.47690323,1.01589677 21.1687742,1.01589677 C32.8621935,1.01589677 42.339871,10.4935742 42.339871,22.1854452" id="Fill-1" fill="#FFFAF4" mask="url(#mask-2)"></path>
                    </g>
                    <path d="M32.5988129,28.162529 C32.5988129,31.6556903 29.7668129,34.4876903 26.2736516,34.4876903 L16.0682323,34.4876903 C12.575071,34.4876903 9.74152258,31.6556903 9.74152258,28.162529 L9.74152258,17.2727226 C9.74152258,13.7795613 12.575071,10.9475613 16.0682323,10.9475613 L26.2736516,10.9475613 C29.7668129,10.9475613 32.5988129,13.7795613 32.5988129,17.2727226 L32.5988129,28.162529 Z" id="Stroke-4" stroke="#756F68" stroke-width="1.202"></path>
                    <path d="M26.7818323,22.6826323 C26.7137032,25.7809548 24.2688,28.2939871 21.1704774,28.2939871 C18.0706065,28.2939871 15.5591226,25.7825032 15.5591226,22.6826323 C15.5591226,19.5827613 18.0721548,16.981471 21.1704774,17.0712774 C24.9438968,17.1812129 26.8499613,19.5951484 26.7818323,22.6826323 Z" id="Stroke-6" stroke="#756F68" stroke-width="1.469"></path>
                    <path d="M29.6562581,15.7436903 C29.6562581,16.6123355 28.9517419,17.3168516 28.0815484,17.3168516 C27.2129032,17.3168516 26.5083871,16.6123355 26.5083871,15.7436903 C26.5083871,14.8750452 27.2129032,14.1689806 28.0815484,14.1689806 C28.9517419,14.1689806 29.6562581,14.8750452 29.6562581,15.7436903" id="Fill-8" fill="#756F68"></path>
                </g>
            </g>
        </g>
    </g>
</svg>