<?xml version="1.0" encoding="UTF-8"?>
<svg width="43px" height="43px" viewBox="0 0 43 43" version="1.1" xmlns="http://www.w3.org/2000/svg" xmlns:xlink="http://www.w3.org/1999/xlink">
    <!-- Generator: Sketch 51.3 (57544) - http://www.bohemiancoding.com/sketch -->
    <title>Group 4</title>
    <desc>Created with Sketch.</desc>
    <defs>
        <polygon id="path-1" points="1.51138065 1.01574194 43.5963871 1.01574194 43.5963871 43.1022968 1.51138065 43.1022968"></polygon>
    </defs>
    <g id="Symbols" stroke="none" stroke-width="1" fill="none" fill-rule="evenodd">
        <g id="socialMedia" transform="translate(-131.000000, -1.000000)">
            <g id="Group-7">
                <g id="Group-4" transform="translate(130.064516, 0.000000)">
                    <g id="Group-12" transform="translate(0.000000, 0.532800)">
                        <mask id="mask-2" fill="white">
                            <use xlink:href="#path-1"></use>
                        </mask>
                        <g id="Clip-11"></g>
                        <path d="M22.5539613,43.1022968 C34.1761548,43.1022968 43.5965419,33.6803613 43.5965419,22.0597161 C43.5965419,10.4375226 34.1761548,1.0155871 22.5539613,1.0155871 C10.9317677,1.0155871 1.51138065,10.4375226 1.51138065,22.0597161 C1.51138065,33.6803613 10.9317677,43.1022968 22.5539613,43.1022968" id="Fill-10" fill="#FFFAF4" mask="url(#mask-2)"></path>
                    </g>
                    <path d="M10.7705806,32.6928 L15.8214194,32.6928 L15.8214194,16.7831226 L10.7705806,16.7831226 L10.7705806,32.6928 Z M13.2975484,8.87550968 C14.9125161,8.87550968 16.224,10.160671 16.224,11.7415742 C16.224,13.3240258 14.9125161,14.6091871 13.2975484,14.6091871 C11.6794839,14.6091871 10.368,13.3240258 10.368,11.7415742 C10.368,10.160671 11.6794839,8.87550968 13.2975484,8.87550968 Z" id="Fill-13" fill="#756F68"></path>
                    <path d="M18.9900387,16.7832774 L23.8349419,16.7832774 L23.8349419,18.9572129 L23.9015226,18.9572129 C24.575071,17.7061161 26.2241032,16.3884387 28.6813935,16.3884387 C33.7957161,16.3884387 34.7402323,19.6834065 34.7402323,23.9662452 L34.7402323,32.6929548 L29.6909419,32.6929548 L29.6909419,24.9556645 C29.6909419,23.1115355 29.6584258,20.7378581 27.0679742,20.7378581 C24.4403613,20.7378581 24.0362323,22.7476645 24.0362323,24.8225032 L24.0362323,32.6929548 L18.9900387,32.6929548 L18.9900387,16.7832774 Z" id="Fill-15" fill="#756F68"></path>
                </g>
            </g>
        </g>
    </g>
</svg>