<?xml version="1.0" encoding="UTF-8"?>
<svg width="29px" height="29px" viewBox="0 0 29 29" version="1.1" xmlns="http://www.w3.org/2000/svg" xmlns:xlink="http://www.w3.org/1999/xlink">
    <!-- Generator: Sketch 51.3 (57544) - http://www.bohemiancoding.com/sketch -->
    <title>Fill 7</title>
    <desc>Created with Sketch.</desc>
    <defs></defs>
    <g id="Page-1" stroke="none" stroke-width="1" fill="none" fill-rule="evenodd">
        <g id="CaseStudy" transform="translate(-1037.000000, -7701.000000)" fill="#536067">
            <g id="Group-25" transform="translate(779.000000, 7461.000000)">
                <path d="M275.0498,258.81 L269.6388,268.19 C270.6108,268.4 271.6098,268.53 272.6508,268.53 C275.9808,268.53 279.0328,267.35 281.4188,265.4 L276.3408,256.59 L275.0498,258.81 Z M259.4128,258.81 C260.6908,262.86 263.7838,266.11 267.7378,267.61 L272.8178,258.81 L259.4128,258.81 Z M267.8488,254.65 L262.4378,245.28 C260.1758,247.75 258.7758,251.03 258.7758,254.65 C258.7758,255.61 258.8718,256.52 259.0528,257.43 L269.4458,257.43 L267.8488,254.65 Z M286.2478,251.88 L275.8558,251.88 L276.2578,252.57 L282.8618,264.02 C285.1378,261.55 286.5258,258.27 286.5258,254.65 C286.5258,253.69 286.4278,252.78 286.2478,251.88 Z M285.8868,250.49 C284.6108,246.44 281.5158,243.19 277.5628,241.69 L272.4848,250.49 L285.8868,250.49 Z M269.0428,252.57 L275.6608,241.11 C274.6908,240.9 273.6918,240.78 272.6508,240.78 C269.3208,240.78 266.2678,241.95 263.8808,243.9 L268.9588,252.71 L269.0428,252.57 Z" id="Fill-7"></path>
            </g>
        </g>
    </g>
</svg>