<?xml version="1.0" encoding="UTF-8"?>
<svg width="25px" height="19px" viewBox="0 0 25 19" version="1.1" xmlns="http://www.w3.org/2000/svg" xmlns:xlink="http://www.w3.org/1999/xlink">
    <!-- Generator: Sketch 51.3 (57544) - http://www.bohemiancoding.com/sketch -->
    <title>Fill 9</title>
    <desc>Created with Sketch.</desc>
    <defs></defs>
    <g id="Page-1" stroke="none" stroke-width="1" fill="none" fill-rule="evenodd">
        <g id="CaseStudy" transform="translate(-1107.000000, -7705.000000)" fill="#536067">
            <g id="Group-25" transform="translate(779.000000, 7461.000000)">
                <path d="M345.2,253.26 L352.137,253.26 L352.137,244.94 L345.2,244.94 L345.2,253.26 Z M336.875,253.26 L343.812,253.26 L343.812,244.94 L336.875,244.94 L336.875,253.26 Z M345.2,262.97 L352.137,262.97 L352.137,254.65 L345.2,254.65 L345.2,262.97 Z M336.875,262.97 L343.812,262.97 L343.812,254.65 L336.875,254.65 L336.875,262.97 Z M328.55,262.97 L335.488,262.97 L335.488,254.65 L328.55,254.65 L328.55,262.97 Z M328.55,253.26 L335.488,253.26 L335.488,244.94 L328.55,244.94 L328.55,253.26 Z" id="Fill-9"></path>
            </g>
        </g>
    </g>
</svg>