<?xml version="1.0" encoding="UTF-8"?>
<svg width="27px" height="23px" viewBox="0 0 27 23" version="1.1" xmlns="http://www.w3.org/2000/svg" xmlns:xlink="http://www.w3.org/1999/xlink">
    <!-- Generator: Sketch 51.3 (57544) - http://www.bohemiancoding.com/sketch -->
    <title>Fill 11</title>
    <desc>Created with Sketch.</desc>
    <defs></defs>
    <g id="Page-1" stroke="none" stroke-width="1" fill="none" fill-rule="evenodd">
        <g id="CaseStudy" transform="translate(-825.000000, -7705.000000)" fill="#536067">
            <g id="Group-25" transform="translate(779.000000, 7461.000000)">
                <path d="M53.875,250.88 L72.375,250.88 L72.375,244.71 L53.875,244.71 L53.875,250.88 Z M53.875,266.29 L72.375,266.29 L72.375,260.13 L53.875,260.13 L53.875,266.29 Z M53.875,258.58 L72.375,258.58 L72.375,252.42 L53.875,252.42 L53.875,258.58 Z M46.167,250.88 L52.334,250.88 L52.334,244.71 L46.167,244.71 L46.167,250.88 Z M46.167,266.29 L52.334,266.29 L52.334,260.13 L46.167,260.13 L46.167,266.29 Z M46.167,258.58 L52.334,258.58 L52.334,252.42 L46.167,252.42 L46.167,258.58 Z" id="Fill-11"></path>
            </g>
        </g>
    </g>
</svg>