<?xml version="1.0" encoding="UTF-8"?>
<svg width="34px" height="23px" viewBox="0 0 34 23" version="1.1" xmlns="http://www.w3.org/2000/svg" xmlns:xlink="http://www.w3.org/1999/xlink">
    <!-- Generator: Sketch 51.3 (57544) - http://www.bohemiancoding.com/sketch -->
    <title>Fill 5</title>
    <desc>Created with Sketch.</desc>
    <defs></defs>
    <g id="Page-1" stroke="none" stroke-width="1" fill="none" fill-rule="evenodd">
        <g id="CaseStudy" transform="translate(-959.000000, -7704.000000)" fill="#536067">
            <g id="Group-25" transform="translate(779.000000, 7461.000000)">
                <path d="M199.4248,256.0498 L199.4248,261.6098 L193.8748,261.6098 L193.8748,256.0498 L189.7118,256.0498 L196.6498,249.1098 L203.5868,256.0498 L199.4248,256.0498 Z M206.8478,251.9398 C205.9048,247.1498 201.6998,243.5598 196.6498,243.5598 C192.6398,243.5598 189.1568,245.8298 187.4228,249.1698 C183.2468,249.6098 179.9998,253.1498 179.9998,257.4398 C179.9998,262.0398 183.7318,265.7798 188.3248,265.7798 L206.3618,265.7798 C210.1918,265.7798 213.2998,262.6598 213.2998,258.8298 C213.2998,255.1698 210.4558,252.1898 206.8478,251.9398 Z" id="Fill-5"></path>
            </g>
        </g>
    </g>
</svg>