<?xml version="1.0" encoding="UTF-8"?>
<svg width="44px" height="43px" viewBox="0 0 44 43" version="1.1" xmlns="http://www.w3.org/2000/svg" xmlns:xlink="http://www.w3.org/1999/xlink">
    <!-- Generator: Sketch 51.3 (57544) - http://www.bohemiancoding.com/sketch -->
    <title>Group 2</title>
    <desc>Created with Sketch.</desc>
    <defs></defs>
    <g id="Symbols" stroke="none" stroke-width="1" fill="none" fill-rule="evenodd">
        <g id="socialMedia" transform="translate(-65.000000, -1.000000)">
            <g id="Group-7">
                <g id="Group-2" transform="translate(65.032258, 1.548387)">
                    <path d="M43.0307613,21.1698581 C43.0307613,32.861729 33.5530839,42.3394065 21.8612129,42.3394065 C10.1693419,42.3394065 0.691664516,32.861729 0.691664516,21.1698581 C0.691664516,9.4779871 10.1693419,0.000309677419 21.8612129,0.000309677419 C33.5530839,0.000309677419 43.0307613,9.4779871 43.0307613,21.1698581" id="Fill-16" fill="#FFFAF4"></path>
                    <path d="M17.1135484,31.5700645 C26.7723871,31.5700645 32.0539355,23.568 32.0539355,16.6296774 C32.0539355,16.4020645 32.0492903,16.176 32.0415484,15.9499355 C33.0650323,15.2098065 33.9553548,14.283871 34.659871,13.2309677 C33.72,13.6490323 32.7058065,13.9308387 31.6436129,14.0578065 C32.7274839,13.4090323 33.5605161,12.3793548 33.9522581,11.1530323 C32.9380645,11.7553548 31.8139355,12.192 30.6185806,12.4273548 C29.6616774,11.4069677 28.296,10.7690323 26.7847742,10.7690323 C23.8846452,10.7690323 21.5326452,13.1210323 21.5326452,16.0196129 C21.5326452,16.4314839 21.5790968,16.8325161 21.6689032,17.2165161 C17.3055484,16.9981935 13.4345806,14.907871 10.8456774,11.7305806 C10.3935484,12.5063226 10.1349677,13.4090323 10.1349677,14.3705806 C10.1349677,16.1914839 11.0609032,17.8002581 12.4714839,18.7416774 C11.6105806,18.7138065 10.8007742,18.4784516 10.0931613,18.0836129 C10.0916129,18.1068387 10.0916129,18.1285161 10.0916129,18.1517419 C10.0916129,20.6941935 11.9016774,22.8170323 14.3063226,23.2985806 C13.8634839,23.4193548 13.4005161,23.4843871 12.9205161,23.4843871 C12.5814194,23.4843871 12.2531613,23.4503226 11.9326452,23.3883871 C12.6015484,25.4756129 14.540129,26.9930323 16.8394839,27.0363871 C15.0418065,28.4454194 12.7765161,29.2846452 10.3176774,29.2846452 C9.89341935,29.2846452 9.47535484,29.259871 9.06348387,29.211871 C11.3876129,30.7014194 14.1483871,31.5700645 17.1135484,31.5700645" id="Fill-17" fill="#756F68"></path>
                </g>
            </g>
        </g>
    </g>
</svg>